<svg aria-hidden="true" style="position: absolute; width: 0; height: 0; overflow: hidden;" version="1.1" xmlns="http://www.w3.org/2000/svg" xmlns:xlink="http://www.w3.org/1999/xlink">
<defs>
<symbol id="icon-whatsapp" viewBox="0 0 32 32">
<path d="M16.004 31c-2.868 0-5.646-0.811-8.050-2.347l-5.348 1.709c-0.179 0.057-0.376 0.009-0.509-0.125s-0.178-0.332-0.117-0.51l1.725-5.146c-1.77-2.52-2.705-5.481-2.705-8.581 0-4.076 1.612-7.891 4.539-10.742 0.197-0.192 0.514-0.188 0.707 0.009 0.192 0.198 0.188 0.515-0.010 0.707-2.731 2.662-4.236 6.222-4.236 10.026 0 2.974 0.922 5.811 2.665 8.204 0.095 0.131 0.121 0.3 0.069 0.454l-1.492 4.452 4.633-1.481c0.144-0.047 0.302-0.024 0.429 0.059 2.285 1.512 4.948 2.312 7.7 2.312 7.718 0 13.996-6.28 13.996-14s-6.278-14-13.996-14c-0.001 0-0.002 0-0.003 0-2.167 0-4.238 0.481-6.164 1.429-0.248 0.121-0.547 0.020-0.669-0.227s-0.021-0.548 0.228-0.67c2.064-1.016 4.286-1.532 6.6-1.532 8.276 0 15.004 6.729 15.004 15s-6.728 15-14.996 15z"></path>
<path d="M20.602 24.493v0c-1.011 0-2.422-0.39-4.439-1.226-2.633-1.090-5.243-3.374-7.35-6.429l-0.075-0.107c-0.696-0.951-1.823-2.773-1.823-4.675 0-2.229 1.115-3.36 1.592-3.843 0.449-0.461 1.12-0.706 1.874-0.706 0.19 0 0.36 0.009 0.515 0.018 0.635 0.025 1.003 0.185 1.353 1.022l0.363 0.88c0.384 0.931 0.857 2.080 0.931 2.235 0.082 0.169 0.331 0.688 0.054 1.228-0.148 0.316-0.293 0.483-0.492 0.713-0.14 0.161-0.233 0.261-0.328 0.361-0.11 0.118-0.222 0.234-0.334 0.375-0.193 0.226-0.193 0.226-0.128 0.339 0.37 0.625 1.157 1.825 2.253 2.8 1.422 1.265 2.571 1.73 3.123 1.954l0.137 0.056c0.145 0.060 0.328 0.103 0.465-0.042 0.248-0.267 0.562-0.706 0.894-1.171l0.199-0.279c0.349-0.493 0.779-0.597 1.078-0.597 0.175 0 0.357 0.035 0.543 0.105 0.465 0.162 2.912 1.381 2.937 1.393l0.235 0.115c0.35 0.168 0.626 0.301 0.784 0.579 0.229 0.398 0.139 1.442-0.209 2.427-0.417 1.179-1.967 2.1-3.213 2.368-0.248 0.052-0.543 0.107-0.939 0.107zM10.38 8.507c-0.472 0-0.902 0.142-1.124 0.369-0.461 0.468-1.342 1.361-1.342 3.18 0 1.181 0.585 2.658 1.605 4.051l0.116 0.165c1.998 2.898 4.452 5.055 6.909 6.072 1.893 0.785 3.182 1.15 4.057 1.15v0c0.3 0 0.523-0.042 0.727-0.085 0.973-0.21 2.198-0.929 2.479-1.724 0.304-0.857 0.298-1.516 0.262-1.647-0.002 0.031-0.182-0.054-0.327-0.124l-0.249-0.122c-0.701-0.351-2.513-1.236-2.83-1.347-0.084-0.032-0.148-0.045-0.202-0.045-0.045 0-0.138 0-0.264 0.178l-0.2 0.28c-0.351 0.492-0.682 0.956-0.976 1.272-0.377 0.403-1.024 0.515-1.581 0.283l-0.127-0.052c-0.557-0.225-1.862-0.753-3.413-2.133-1.196-1.066-2.049-2.363-2.451-3.042-0.423-0.729 0.006-1.231 0.212-1.472 0.131-0.163 0.259-0.298 0.387-0.434 0.084-0.089 0.168-0.178 0.254-0.278 0.225-0.259 0.299-0.345 0.396-0.552 0.029-0.057 0.045-0.138-0.059-0.354-0.076-0.16-0.562-1.334-0.953-2.286l-0.362-0.877c-0.165-0.396-0.165-0.396-0.479-0.408-0.144-0.010-0.296-0.018-0.465-0.018z"></path>
<path d="M8 4c0 0.276-0.224 0.5-0.5 0.5s-0.5-0.224-0.5-0.5c0-0.276 0.224-0.5 0.5-0.5s0.5 0.224 0.5 0.5z"></path>
</symbol>
<symbol id="icon-telephone" viewBox="0 0 32 32">
<path d="M9.984 31.001c-0.159 0-0.326-0.025-0.503-0.081-0.904-0.275-1.109-1.335-1.086-1.918l0.004-2.529c-6.861-2.181-6.706-9.549-6.631-13.122 0.078-3.707 0.78-6.334 2.209-8.27 0.164-0.223 0.477-0.269 0.699-0.105s0.27 0.477 0.105 0.699c-1.301 1.762-1.94 4.208-2.014 7.697-0.077 3.64-0.22 10.413 6.25 12.243 0.087 0.022 0.168 0.067 0.232 0.131 0.094 0.094 0.149 0.221 0.149 0.354l-0.005 2.922c-0.005 0.186 0.045 0.84 0.382 0.942 0.438 0.14 0.746-0.154 1.453-0.956 0.136-0.155 0.279-0.317 0.431-0.48 0.489-0.528 1.164-1.305 1.676-1.896 0.104-0.121 0.259-0.186 0.42-0.171 4.857 0.406 8.41-0.602 8.443-0.612 0.089-0.029 0.22-0.063 0.381-0.104 1.545-0.394 5.651-1.439 6.393-7.522 0.803-6.535-0.139-11.337-2.652-13.522-0.489-0.451-3.21-2.652-9.794-2.681-0.074-0.004-4.462-0.246-8.090 1.111-0.261 0.098-0.547-0.034-0.644-0.292-0.096-0.259 0.035-0.547 0.293-0.644 3.831-1.433 8.285-1.184 8.473-1.174 6.925 0.029 9.903 2.45 10.429 2.935 2.761 2.401 3.822 7.515 2.978 14.389-0.825 6.762-5.577 7.972-7.138 8.37-0.136 0.035-0.245 0.062-0.322 0.087-0.723 0.229-4.247 0.998-8.579 0.677-0.492 0.567-1.088 1.25-1.533 1.73-0.147 0.158-0.284 0.313-0.415 0.462-0.578 0.655-1.172 1.33-1.994 1.33z"></path>
<path d="M20.258 22.6c-0.207 0-0.412-0.033-0.61-0.096l-0.171-0.065c-1.376-0.443-4.095-1.89-5.786-3.237-0.902-0.712-1.785-1.595-2.483-2.483-0.644-0.805-1.246-1.717-1.79-2.707-1.221-2.207-1.505-3.222-1.517-3.264-0.461-1.43 0.854-2.783 2.122-3.5l0.144-0.065c0.679-0.302 1.397-0.145 1.852 0.401v0c0 0 0.716 0.856 1.022 1.278 0.302 0.41 0.698 1.058 0.89 1.392 0.482 0.862 0.184 1.751-0.339 2.152l-0.671 0.537c-0.11 0.089-0.117 0.325-0.114 0.358 0 0 0 0 0 0 0.008 0 0.998 3.465 4.4 4.334 0.052-0.014 0.211-0.044 0.279-0.129l0.544-0.679c0.433-0.567 1.401-0.747 2.141-0.334 0.738 0.417 1.884 1.173 2.693 1.936 0.532 0.432 0.678 1.126 0.372 1.814v0.019l-0.065 0.126c-0.296 0.519-1.378 2.212-2.913 2.212zM20.106 21.588c0.792 0.125 1.675-0.809 2.159-1.633l0.027-0.056c0.157-0.301 0.127-0.543-0.088-0.718-0.639-0.602-1.619-1.305-2.524-1.815-0.337-0.189-0.749-0.070-0.863 0.079l-0.551 0.688c-0.354 0.442-0.903 0.49-1.123 0.49l-0.104-0.004c-4.084-1.038-5.169-4.978-5.213-5.145-0.021-0.164-0.068-0.878 0.47-1.31l0.68-0.544c0.132-0.101 0.322-0.45 0.086-0.872-0.215-0.375-0.58-0.959-0.828-1.295-0.295-0.407-0.981-1.225-0.983-1.227-0.192-0.231-0.438-0.256-0.738-0.099l-0.102 0.053c-0.758 0.455-1.84 1.386-1.551 2.284 0.008 0.029 0.284 0.987 1.434 3.066 0.517 0.941 1.087 1.805 1.697 2.569 0.653 0.832 1.477 1.654 2.321 2.321 1.793 1.428 4.565 2.818 5.612 3.111l0.182 0.057z"></path>
<path d="M23 13.5c-0.276 0-0.5-0.224-0.5-0.5 0-3.033-2.467-5.5-5.5-5.5-0.276 0-0.5-0.224-0.5-0.5s0.224-0.5 0.5-0.5c3.584 0 6.5 2.916 6.5 6.5 0 0.276-0.224 0.5-0.5 0.5z"></path>
<path d="M21 13.5c-0.276 0-0.5-0.224-0.5-0.5 0-1.93-1.57-3.5-3.5-3.5-0.276 0-0.5-0.224-0.5-0.5s0.224-0.5 0.5-0.5c2.481 0 4.5 2.019 4.5 4.5 0 0.276-0.224 0.5-0.5 0.5z"></path>
<path d="M19 13.5c-0.276 0-0.5-0.224-0.5-0.5 0-0.827-0.673-1.5-1.5-1.5-0.276 0-0.5-0.224-0.5-0.5s0.224-0.5 0.5-0.5c1.378 0 2.5 1.122 2.5 2.5 0 0.276-0.224 0.5-0.5 0.5z"></path>
<path d="M7 3.5c0 0.276-0.224 0.5-0.5 0.5s-0.5-0.224-0.5-0.5c0-0.276 0.224-0.5 0.5-0.5s0.5 0.224 0.5 0.5z"></path>
</symbol>
<symbol id="icon-telegram" viewBox="0 0 32 32">
<path d="M26.070 3.996c-0.336 0.016-0.652 0.113-0.934 0.223h-0.004c-0.285 0.113-1.641 0.684-3.699 1.547-2.059 0.867-4.73 1.992-7.383 3.109-5.297 2.23-10.504 4.426-10.504 4.426l0.063-0.023c0 0-0.359 0.117-0.734 0.375-0.191 0.125-0.402 0.297-0.586 0.566s-0.332 0.684-0.277 1.109c0.090 0.723 0.559 1.156 0.895 1.395 0.34 0.242 0.664 0.355 0.664 0.355h0.008l4.883 1.645c0.219 0.703 1.488 4.875 1.793 5.836 0.18 0.574 0.355 0.934 0.574 1.207 0.105 0.141 0.23 0.258 0.379 0.352 0.059 0.035 0.121 0.063 0.184 0.086 0.020 0.012 0.039 0.016 0.063 0.020l-0.051-0.012c0.016 0.004 0.027 0.016 0.039 0.020 0.039 0.012 0.066 0.016 0.117 0.023 0.773 0.234 1.395-0.246 1.395-0.246l0.035-0.027 2.883-2.625 4.832 3.707 0.109 0.047c1.008 0.441 2.027 0.195 2.566-0.238 0.543-0.438 0.754-0.996 0.754-0.996l0.035-0.090 3.734-19.129c0.105-0.473 0.133-0.914 0.016-1.344s-0.418-0.832-0.781-1.047c-0.367-0.219-0.73-0.285-1.066-0.27zM25.969 6.047c-0.004 0.063 0.008 0.055-0.020 0.176v0.012l-3.699 18.93c-0.016 0.027-0.043 0.086-0.117 0.145-0.078 0.063-0.141 0.102-0.465-0.027l-5.91-4.531-3.57 3.254 0.75-4.789c0 0 9.258-8.629 9.656-9s0.266-0.449 0.266-0.449c0.027-0.453-0.602-0.133-0.602-0.133l-12.176 7.543-0.004-0.020-5.836-1.969c-0.004 0-0.012-0.004-0.016-0.004 0.004 0 0.031-0.012 0.031-0.012l0.031-0.016 0.031-0.012c0 0 5.211-2.195 10.508-4.426 2.652-1.117 5.324-2.242 7.379-3.109 2.055-0.863 3.574-1.496 3.66-1.531 0.082-0.031 0.043-0.031 0.102-0.031z"></path>
</symbol>
</defs>
</svg>
